# xmcd CD database file
#
# Track frame offsets:
#	150
#	26437
#	47617
#	70835
#	93572
#	105942
#	134607
#	162467
#	192815
#	218392
#	238467
#	260865
#
# Disc length: 3725 seconds
#
# Revision: 1
# Processed by: cddbd v1.5.2PL0 Copyright (c) Steve Scherf et al.
# Submitted via: CDex 1.70beta2
#
DISCID=a90e8b0c
DTITLE=Various Artist - Jazz in the Cafes～Seaside Interiors～
DYEAR=2001
DGENRE=Jazz
TTITLE0=Kingston Connection - Grand Cross
TTITLE1=Matto Grosso - David Matthews Orchestra
TTITLE2=Oslo - David Benoit
TTITLE3=New York Liner - New York Liner
TTITLE4=Lonely Promises - David Matthews and Electric Birds
TTITLE5=Another Rainy Day In New York City/益田幹夫
TTITLE6=Mika - Super Funky Sax
TTITLE7=Montauk Moon - Steve Gadd
TTITLE8=Burnin' Waves/本多俊之
TTITLE9=The Song is Me and You/増尾好秋
TTITLE10=Hermosa Skyline - David Benoit
TTITLE11=If - David Matthews Orchestra
EXTD=YEAR: 2001
EXTT0=
EXTT1=
EXTT2=
EXTT3=
EXTT4=
EXTT5=
EXTT6=
EXTT7=
EXTT8=
EXTT9=
EXTT10=
EXTT11=
PLAYORDER=
